<?xml version="1.0" encoding="iso-8859-1"?>
<!-- Generator: Adobe Illustrator 17.1.0, SVG Export Plug-In . SVG Version: 6.00 Build 0)  -->
<!DOCTYPE svg PUBLIC "-//W3C//DTD SVG 1.1//EN" "http://www.w3.org/Graphics/SVG/1.1/DTD/svg11.dtd">
<svg version="1.1" fill="#32533d" xmlns="http://www.w3.org/2000/svg" xmlns:xlink="http://www.w3.org/1999/xlink" x="0px" y="0px"
	 viewBox="0 0 355.023 355.023" style="enable-background:new 0 0 355.023 355.023;" xml:space="preserve">
<g>
	<path d="M185.5,177.512c0-15.164-12.336-27.5-27.5-27.5c-15.164,0-27.5,12.336-27.5,27.5c0,15.164,12.336,27.5,27.5,27.5
		C173.164,205.012,185.5,192.675,185.5,177.512z M158,190.012c-6.893,0-12.5-5.607-12.5-12.5c0-6.893,5.607-12.5,12.5-12.5
		c6.893,0,12.5,5.607,12.5,12.5C170.5,184.404,164.893,190.012,158,190.012z"/>
	<path d="M122.5,152.512c0-27.019-21.981-49-49-49c-27.019,0-49,21.981-49,49s21.981,49,49,49
		C100.518,201.512,122.5,179.53,122.5,152.512z M74.996,186.474c-0.316-2.971-0.496-5.966-0.496-8.962
		c0-19.318,6.625-37.805,18.728-52.665c8.631,6.172,14.272,16.269,14.272,27.665C107.5,170.758,93.051,185.688,74.996,186.474z
		 M39.5,152.512c0-18.748,15.252-34,34-34c1.814,0,3.595,0.146,5.333,0.421C66.314,135.818,59.5,156.237,59.5,177.512
		c0,2.023,0.084,4.046,0.208,6.065C47.815,178.276,39.5,166.35,39.5,152.512z"/>
	<path d="M108.5,200.012c-27.019,0-49,21.981-49,49s21.981,49,49,49c27.019,0,49-21.981,49-49S135.518,200.012,108.5,200.012z
		 M142.5,249.012c0,3.571-0.557,7.013-1.582,10.249c-22.124-4.577-41.237-17.807-53.404-36.97c5.785-4.553,13.071-7.28,20.986-7.28
		C127.247,215.012,142.5,230.264,142.5,249.012z M108.5,283.012c-18.748,0-34-15.252-34-34c0-5.151,1.157-10.035,3.217-14.415
		c13.391,18.885,32.773,32.311,55.085,38.161C126.624,279.078,118.015,283.012,108.5,283.012z"/>
	<path d="M211.5,200.012c-27.019,0-49,21.981-49,49s21.981,49,49,49c27.018,0,49-21.981,49-49S238.518,200.012,211.5,200.012z
		 M211.5,215.012c6.691,0,12.932,1.951,18.198,5.302c-11.272,18.804-29.712,32.613-50.873,38.072
		c-0.857-2.98-1.325-6.123-1.325-9.374C177.5,230.264,192.752,215.012,211.5,215.012z M211.5,283.012
		c-9.963,0-18.94-4.308-25.164-11.159c22.142-6.682,41.473-21.154,54.176-40.55c3.162,5.161,4.988,11.226,4.988,17.709
		C245.5,267.759,230.247,283.012,211.5,283.012z"/>
	<path d="M158,141.012c27.018,0,49-21.981,49-49s-21.982-49-49-49c-27.019,0-49,21.981-49,49S130.981,141.012,158,141.012z
		 M158,126.012c-15.736,0-29.004-10.747-32.863-25.286c10.366-4.455,21.395-6.714,32.863-6.714c11.456,0,22.489,2.261,32.862,6.717
		C187.002,115.266,173.734,126.012,158,126.012z M158,58.012c16.254,0,29.873,11.468,33.21,26.736
		c-10.6-3.808-21.728-5.736-33.21-5.736c-11.494,0-22.618,1.93-33.211,5.737C128.126,69.48,141.746,58.012,158,58.012z"/>
	<path d="M242.5,103.512c-27.019,0-49,21.981-49,49s21.981,49,49,49c27.019,0,49-21.981,49-49S269.518,103.512,242.5,103.512z
		 M208.5,152.512c0-11.396,5.642-21.493,14.272-27.665c12.103,14.86,18.728,33.347,18.728,52.665v0.631
		c0.001,3.311,0,5.789-0.223,8.338C223.095,185.833,208.5,170.849,208.5,152.512z M256.454,183.504
		c0.044-1.699,0.047-3.439,0.046-5.365v-0.627c0-21.274-6.814-41.694-19.333-58.579c1.738-0.275,3.518-0.421,5.333-0.421
		c18.748,0,34,15.252,34,34C276.5,166.288,268.26,178.167,256.454,183.504z"/>
	<path d="M347.523,316.762c-19.8,0-34.43-5.339-43.485-15.869c-14.154-16.459-10.676-40.899-10.626-41.235
		c0.049-0.32,0.071-0.636,0.079-0.951C307.773,234.962,316,207.181,316,177.512c0-87.122-70.878-158-158-158S0,90.39,0,177.512
		s70.878,158,158,158c48.461,0,91.888-21.938,120.895-56.396c1.49,9.868,5.181,21.513,13.673,31.443
		c12.03,14.069,30.521,21.202,54.956,21.202c4.142,0,7.5-3.358,7.5-7.5C355.023,320.12,351.665,316.762,347.523,316.762z
		 M158,320.512c-78.851,0-143-64.15-143-143s64.149-143,143-143s143,64.15,143,143S236.851,320.512,158,320.512z"/>
</g>
<g>
</g>
<g>
</g>
<g>
</g>
<g>
</g>
<g>
</g>
<g>
</g>
<g>
</g>
<g>
</g>
<g>
</g>
<g>
</g>
<g>
</g>
<g>
</g>
<g>
</g>
<g>
</g>
<g>
</g>
</svg>
